<mxfile host="app.diagrams.net" modified="2024-04-24T06:21:15.862Z" agent="Mozilla/5.0 (Windows NT 10.0; Win64; x64) AppleWebKit/537.36 (KHTML, like Gecko) Chrome/124.0.0.0 Safari/537.36" etag="qL3njCcwL9ZxBJ697nOF" version="24.2.8" type="device">
  <diagram name="Page-1" id="FGSfNuRx5qdC37ny0ZAt">
    <mxGraphModel dx="1444" dy="835" grid="1" gridSize="10" guides="1" tooltips="1" connect="1" arrows="1" fold="1" page="1" pageScale="1" pageWidth="850" pageHeight="1100" math="0" shadow="0">
      <root>
        <mxCell id="0" />
        <mxCell id="1" parent="0" />
        <mxCell id="laI_btljIM6Q030uAk11-1" value="" style="rounded=0;whiteSpace=wrap;html=1;" vertex="1" parent="1">
          <mxGeometry x="170" y="40" width="340" height="440" as="geometry" />
        </mxCell>
        <mxCell id="laI_btljIM6Q030uAk11-2" value="&lt;font style=&quot;font-size: 28px;&quot;&gt;Quiz App&amp;nbsp;&lt;/font&gt;" style="rounded=0;whiteSpace=wrap;html=1;fontSize=13;" vertex="1" parent="1">
          <mxGeometry x="242.5" y="90" width="210" height="60" as="geometry" />
        </mxCell>
        <mxCell id="laI_btljIM6Q030uAk11-3" value="Select Difficulty Level" style="rounded=0;whiteSpace=wrap;html=1;" vertex="1" parent="1">
          <mxGeometry x="235" y="230" width="225" height="30" as="geometry" />
        </mxCell>
        <mxCell id="laI_btljIM6Q030uAk11-4" value="Select the Topic&amp;nbsp;" style="rounded=0;whiteSpace=wrap;html=1;" vertex="1" parent="1">
          <mxGeometry x="237.5" y="310" width="222.5" height="30" as="geometry" />
        </mxCell>
        <mxCell id="laI_btljIM6Q030uAk11-5" value="&lt;font style=&quot;font-size: 21px;&quot;&gt;Start&amp;nbsp;&lt;/font&gt;" style="rounded=0;whiteSpace=wrap;html=1;" vertex="1" parent="1">
          <mxGeometry x="287.5" y="400" width="120" height="40" as="geometry" />
        </mxCell>
        <mxCell id="laI_btljIM6Q030uAk11-6" value="" style="rounded=0;whiteSpace=wrap;html=1;" vertex="1" parent="1">
          <mxGeometry x="170" y="540" width="340" height="440" as="geometry" />
        </mxCell>
        <mxCell id="laI_btljIM6Q030uAk11-7" value="&lt;font style=&quot;font-size: 28px;&quot;&gt;Quiz App&amp;nbsp;&lt;/font&gt;" style="rounded=0;whiteSpace=wrap;html=1;fontSize=13;" vertex="1" parent="1">
          <mxGeometry x="235" y="620" width="210" height="60" as="geometry" />
        </mxCell>
        <mxCell id="laI_btljIM6Q030uAk11-8" value="&lt;font style=&quot;font-size: 16px;&quot;&gt;Yout Score&amp;nbsp; is 5 out of 10&lt;/font&gt;" style="rounded=0;whiteSpace=wrap;html=1;" vertex="1" parent="1">
          <mxGeometry x="227.5" y="740" width="217.5" height="60" as="geometry" />
        </mxCell>
        <mxCell id="laI_btljIM6Q030uAk11-9" value="Restart" style="rounded=0;whiteSpace=wrap;html=1;" vertex="1" parent="1">
          <mxGeometry x="288.75" y="850" width="120" height="40" as="geometry" />
        </mxCell>
      </root>
    </mxGraphModel>
  </diagram>
</mxfile>
